<svg width="728" height="50" viewBox="0 0 728 50" fill="none" xmlns="http://www.w3.org/2000/svg">
<g filter="url(#filter0_d_1_2)">
<path d="M27.8031 10.244L28.6886 10.7085L29.4569 9.244H27.8031V10.244ZM17.9471 29.032L17.0615 28.5674L16.9471 28.7856V29.032H17.9471ZM17.9471 41V42H18.9471V41H17.9471ZM14.8671 41H13.8671V42H14.8671V41ZM14.8671 29.032H15.8671V28.7837L15.7509 28.5642L14.8671 29.032ZM4.92308 10.244V9.244H3.26238L4.03924 10.7118L4.92308 10.244ZM8.39908 10.244L9.29301 9.7958L9.01635 9.244H8.39908V10.244ZM16.4071 26.216L15.5131 26.6642L16.4095 28.4521L17.302 26.6622L16.4071 26.216ZM24.3711 10.244V9.244H23.7523L23.4762 9.79777L24.3711 10.244ZM26.9175 9.77945L17.0615 28.5674L18.8326 29.4965L28.6886 10.7085L26.9175 9.77945ZM16.9471 29.032V41H18.9471V29.032H16.9471ZM17.9471 40H14.8671V42H17.9471V40ZM15.8671 41V29.032H13.8671V41H15.8671ZM15.7509 28.5642L5.80692 9.7762L4.03924 10.7118L13.9832 29.4998L15.7509 28.5642ZM4.92308 11.244H8.39908V9.244H4.92308V11.244ZM7.50514 10.6922L15.5131 26.6642L17.301 25.7678L9.29301 9.7958L7.50514 10.6922ZM17.302 26.6622L25.266 10.6902L23.4762 9.79777L15.5122 25.7698L17.302 26.6622ZM24.3711 11.244H27.8031V9.244H24.3711V11.244ZM50.131 33.696L51.0696 33.3511L50.8289 32.696H50.131V33.696ZM36.139 33.696V32.696H35.4411L35.2004 33.3511L36.139 33.696ZM33.455 41V42H34.1529L34.3936 41.3449L33.455 41ZM30.199 41L29.261 40.6533L28.7633 42H30.199V41ZM41.419 10.64V9.64H40.7225L40.481 10.2933L41.419 10.64ZM44.895 10.64L45.8335 10.2945L45.5925 9.64H44.895V10.64ZM56.071 41V42H57.5047L57.0095 40.6545L56.071 41ZM52.815 41L51.8764 41.3449L52.1171 42H52.815V41ZM49.207 31.144V32.144H50.6367L50.1464 30.8011L49.207 31.144ZM43.135 14.512L44.0744 14.1691L43.135 11.596L42.1957 14.1691L43.135 14.512ZM37.063 31.144L36.1237 30.8011L35.6334 32.144H37.063V31.144ZM50.131 32.696H36.139V34.696H50.131V32.696ZM35.2004 33.3511L32.5164 40.6551L34.3936 41.3449L37.0776 34.0409L35.2004 33.3511ZM33.455 40H30.199V42H33.455V40ZM31.137 41.3467L42.357 10.9866L40.481 10.2933L29.261 40.6533L31.137 41.3467ZM41.419 11.64H44.895V9.64H41.419V11.64ZM43.9566 10.9855L55.1326 41.3455L57.0095 40.6545L45.8335 10.2945L43.9566 10.9855ZM56.071 40H52.815V42H56.071V40ZM53.7536 40.6551L51.0696 33.3511L49.1924 34.0409L51.8764 41.3449L53.7536 40.6551ZM50.1464 30.8011L44.0744 14.1691L42.1957 14.8549L48.2677 31.4869L50.1464 30.8011ZM42.1957 14.1691L36.1237 30.8011L38.0024 31.4869L44.0744 14.8549L42.1957 14.1691ZM37.063 32.144H49.207V30.144H37.063V32.144ZM84.2021 41V42H85.2021V41H84.2021ZM81.1221 41L80.2868 41.5498L80.5831 42H81.1221V41ZM64.0941 15.128L64.9295 14.5782L63.0941 11.7897V15.128H64.0941ZM64.0941 41V42H65.0941V41H64.0941ZM61.0141 41H60.0141V42H61.0141V41ZM61.0141 10.244V9.244H60.0141V10.244H61.0141ZM64.0941 10.244L64.929 9.69357L64.6326 9.244H64.0941V10.244ZM81.1221 36.072L80.2873 36.6224L82.1221 39.4056V36.072H81.1221ZM81.1221 10.244V9.244H80.1221V10.244H81.1221ZM84.2021 10.244H85.2021V9.244H84.2021V10.244ZM84.2021 40H81.1221V42H84.2021V40ZM81.9575 40.4502L64.9295 14.5782L63.2588 15.6778L80.2868 41.5498L81.9575 40.4502ZM63.0941 15.128V41H65.0941V15.128H63.0941ZM64.0941 40H61.0141V42H64.0941V40ZM62.0141 41V10.244H60.0141V41H62.0141ZM61.0141 11.244H64.0941V9.244H61.0141V11.244ZM63.2593 10.7944L80.2873 36.6224L81.957 35.5216L64.929 9.69357L63.2593 10.7944ZM82.1221 36.072V10.244H80.1221V36.072H82.1221ZM81.1221 11.244H84.2021V9.244H81.1221V11.244ZM83.2021 10.244V41H85.2021V10.244H83.2021ZM114.366 41V42H115.366V41H114.366ZM111.286 41L110.451 41.5498L110.747 42H111.286V41ZM94.2582 15.128L95.0935 14.5782L93.2582 11.7897V15.128H94.2582ZM94.2582 41V42H95.2582V41H94.2582ZM91.1782 41H90.1782V42H91.1782V41ZM91.1782 10.244V9.244H90.1782V10.244H91.1782ZM94.2582 10.244L95.0931 9.69357L94.7967 9.244H94.2582V10.244ZM111.286 36.072L110.451 36.6224L112.286 39.4056V36.072H111.286ZM111.286 10.244V9.244H110.286V10.244H111.286ZM114.366 10.244H115.366V9.244H114.366V10.244ZM114.366 40H111.286V42H114.366V40ZM112.122 40.4502L95.0935 14.5782L93.4229 15.6778L110.451 41.5498L112.122 40.4502ZM93.2582 15.128V41H95.2582V15.128H93.2582ZM94.2582 40H91.1782V42H94.2582V40ZM92.1782 41V10.244H90.1782V41H92.1782ZM91.1782 11.244H94.2582V9.244H91.1782V11.244ZM93.4233 10.7944L110.451 36.6224L112.121 35.5216L95.0931 9.69357L93.4233 10.7944ZM112.286 36.072V10.244H110.286V36.072H112.286ZM111.286 11.244H114.366V9.244H111.286V11.244ZM113.366 10.244V41H115.366V10.244H113.366ZM136.496 38.492H135.496V39.492H136.496V38.492ZM147.54 38.492H148.54V37.492H147.54V38.492ZM147.54 41V42H148.54V41H147.54ZM133.416 41H132.416V42H133.416V41ZM133.416 10.244V9.244H132.416V10.244H133.416ZM136.496 10.244H137.496V9.244H136.496V10.244ZM136.496 39.492H147.54V37.492H136.496V39.492ZM146.54 38.492V41H148.54V38.492H146.54ZM147.54 40H133.416V42H147.54V40ZM134.416 41V10.244H132.416V41H134.416ZM133.416 11.244H136.496V9.244H133.416V11.244ZM135.496 10.244V38.492H137.496V10.244H135.496ZM155.016 12.752V11.752H154.016V12.752H155.016ZM155.016 24.236H154.016V25.236H155.016V24.236ZM166.676 24.236H167.676V23.236H166.676V24.236ZM166.676 26.788V27.788H167.676V26.788H166.676ZM155.016 26.788V25.788H154.016V26.788H155.016ZM155.016 38.448H154.016V39.448H155.016V38.448ZM167.996 38.448H168.996V37.448H167.996V38.448ZM167.996 41V42H168.996V41H167.996ZM151.936 41H150.936V42H151.936V41ZM151.936 10.2V9.2H150.936V10.2H151.936ZM167.996 10.2H168.996V9.2H167.996V10.2ZM167.996 12.752V13.752H168.996V12.752H167.996ZM154.016 12.752V24.236H156.016V12.752H154.016ZM155.016 25.236H166.676V23.236H155.016V25.236ZM165.676 24.236V26.788H167.676V24.236H165.676ZM166.676 25.788H155.016V27.788H166.676V25.788ZM154.016 26.788V38.448H156.016V26.788H154.016ZM155.016 39.448H167.996V37.448H155.016V39.448ZM166.996 38.448V41H168.996V38.448H166.996ZM167.996 40H151.936V42H167.996V40ZM152.936 41V10.2H150.936V41H152.936ZM151.936 11.2H167.996V9.2H151.936V11.2ZM166.996 10.2V12.752H168.996V10.2H166.996ZM167.996 11.752H155.016V13.752H167.996V11.752ZM192.061 10.244H193.061V9.244H192.061V10.244ZM192.061 12.796V13.796H193.061V12.796H192.061ZM183.525 12.796V11.796H182.525V12.796H183.525ZM183.525 41V42H184.525V41H183.525ZM180.445 41H179.445V42H180.445V41ZM180.445 12.796H181.445V11.796H180.445V12.796ZM171.865 12.796H170.865V13.796H171.865V12.796ZM171.865 10.244V9.244H170.865V10.244H171.865ZM191.061 10.244V12.796H193.061V10.244H191.061ZM192.061 11.796H183.525V13.796H192.061V11.796ZM182.525 12.796V41H184.525V12.796H182.525ZM183.525 40H180.445V42H183.525V40ZM181.445 41V12.796H179.445V41H181.445ZM180.445 11.796H171.865V13.796H180.445V11.796ZM172.865 12.796V10.244H170.865V12.796H172.865ZM171.865 11.244H192.061V9.244H171.865V11.244ZM202.996 39.328L202.493 40.1922L202.501 40.1969L202.996 39.328ZM197.496 33.74L196.62 34.2211L196.623 34.2275L196.627 34.2338L197.496 33.74ZM197.496 17.504L196.624 17.0147L196.622 17.0184L197.496 17.504ZM202.996 11.916L203.491 12.785L203.499 12.7802L202.996 11.916ZM218.528 11.916L218.025 12.7802L218.033 12.7849L218.528 11.916ZM223.984 17.504L223.108 17.9851L223.11 17.9896L223.984 17.504ZM223.984 33.74L224.858 34.2256L224.861 34.2211L223.984 33.74ZM218.528 39.328L219.023 40.197L219.031 40.1922L218.528 39.328ZM216.9 37.04L217.402 37.9048L217.402 37.9048L216.9 37.04ZM221.212 32.508L222.093 32.9813L222.096 32.9759L221.212 32.508ZM221.212 18.736L222.093 18.2627L222.093 18.2627L221.212 18.736ZM216.9 14.204L217.402 13.3392L217.402 13.3392L216.9 14.204ZM200.268 18.736L199.387 18.2627L199.387 18.2627L200.268 18.736ZM200.268 32.508L199.384 32.9759L199.387 32.9813L200.268 32.508ZM204.58 37.04L205.082 36.1752L205.082 36.1752L204.58 37.04ZM210.74 40.308C208.057 40.308 205.648 39.6874 203.491 38.4591L202.501 40.1969C204.98 41.6086 207.733 42.308 210.74 42.308V40.308ZM203.499 38.4638C201.338 37.2052 199.63 35.4716 198.366 33.2462L196.627 34.2338C198.062 36.7604 200.02 38.7522 202.493 40.1922L203.499 38.4638ZM198.373 33.2589C197.142 31.0155 196.516 28.4705 196.516 25.6H194.516C194.516 28.7721 195.211 31.6538 196.62 34.2211L198.373 33.2589ZM196.516 25.6C196.516 22.7293 197.142 20.201 198.37 17.9896L196.622 17.0184C195.211 19.559 194.516 22.4281 194.516 25.6H196.516ZM198.368 17.9932C199.632 15.7407 201.337 14.0118 203.491 12.7849L202.501 11.0471C200.021 12.4602 198.059 14.4566 196.624 17.0147L198.368 17.9932ZM203.499 12.7802C205.655 11.5253 208.061 10.892 210.74 10.892V8.892C207.729 8.892 204.973 9.60806 202.493 11.0518L203.499 12.7802ZM210.74 10.892C213.451 10.892 215.872 11.5262 218.025 12.7802L219.031 11.0518C216.55 9.60713 213.779 8.892 210.74 8.892V10.892ZM218.033 12.7849C220.185 14.0107 221.874 15.7369 223.108 17.9851L224.861 17.0229C223.455 14.4604 221.506 12.4613 219.023 11.0471L218.033 12.7849ZM223.11 17.9896C224.339 20.201 224.964 22.7293 224.964 25.6H226.964C226.964 22.4281 226.27 19.559 224.858 17.0184L223.11 17.9896ZM224.964 25.6C224.964 28.4705 224.339 31.0155 223.108 33.2589L224.861 34.2211C226.27 31.6538 226.964 28.7721 226.964 25.6H224.964ZM223.11 33.2544C221.876 35.4754 220.185 37.2063 218.025 38.4638L219.031 40.1922C221.506 38.751 223.452 36.7566 224.858 34.2256L223.11 33.2544ZM218.033 38.4591C215.878 39.6865 213.455 40.308 210.74 40.308V42.308C213.775 42.308 216.543 41.6095 219.023 40.1969L218.033 38.4591ZM210.74 39.624C213.189 39.624 215.418 39.0571 217.402 37.9048L216.398 36.1752C214.745 37.1349 212.868 37.624 210.74 37.624V39.624ZM217.402 37.9048C219.391 36.7501 220.955 35.0993 222.093 32.9813L220.331 32.0347C219.357 33.8474 218.047 35.2179 216.398 36.1752L217.402 37.9048ZM222.096 32.9759C223.24 30.816 223.796 28.3481 223.796 25.6H221.796C221.796 28.0733 221.297 30.2107 220.329 32.0401L222.096 32.9759ZM223.796 25.6C223.796 22.8523 223.24 20.3965 222.093 18.2627L220.331 19.2093C221.297 21.0062 221.796 23.1263 221.796 25.6H223.796ZM222.093 18.2627C220.955 16.1447 219.391 14.4939 217.402 13.3392L216.398 15.0688C218.047 16.0261 219.357 17.3966 220.331 19.2093L222.093 18.2627ZM217.402 13.3392C215.418 12.1869 213.189 11.62 210.74 11.62V13.62C212.868 13.62 214.745 14.109 216.398 15.0688L217.402 13.3392ZM210.74 11.62C208.292 11.62 206.063 12.1869 204.078 13.3392L205.082 15.0688C206.735 14.109 208.613 13.62 210.74 13.62V11.62ZM204.078 13.3392C202.09 14.4939 200.525 16.1447 199.387 18.2627L201.149 19.2093C202.123 17.3966 203.434 16.0261 205.082 15.0688L204.078 13.3392ZM199.387 18.2627C198.241 20.3965 197.684 22.8523 197.684 25.6H199.684C199.684 23.1263 200.184 21.0062 201.149 19.2093L199.387 18.2627ZM197.684 25.6C197.684 28.3481 198.241 30.816 199.385 32.9759L201.152 32.0401C200.184 30.2107 199.684 28.0733 199.684 25.6H197.684ZM199.387 32.9813C200.525 35.0993 202.09 36.7501 204.078 37.9048L205.082 36.1752C203.434 35.2179 202.123 33.8474 201.149 32.0347L199.387 32.9813ZM204.078 37.9048C206.063 39.0571 208.292 39.624 210.74 39.624V37.624C208.613 37.624 206.735 37.1349 205.082 36.1752L204.078 37.9048ZM234.548 10.244H235.548V9.244H234.548V10.244ZM236.704 36.38L235.99 37.08L235.997 37.0871L236.704 36.38ZM248.584 36.424L247.87 35.7241L247.87 35.7242L248.584 36.424ZM250.74 10.244V9.244H249.74V10.244H250.74ZM253.82 10.244H254.82V9.244H253.82V10.244ZM250.696 38.36L250.01 37.6327L250.005 37.6376L250.696 38.36ZM234.548 38.36L233.857 39.0824L233.862 39.0873L234.548 38.36ZM231.468 10.244V9.244H230.468V10.244H231.468ZM233.548 10.244V29.604H235.548V10.244H233.548ZM233.548 29.604C233.548 32.7907 234.297 35.3525 235.99 37.0799L237.418 35.6801C236.236 34.4741 235.548 32.5186 235.548 29.604H233.548ZM235.997 37.0871C237.69 38.7805 239.961 39.58 242.688 39.58V37.58C240.37 37.58 238.651 36.9128 237.411 35.6729L235.997 37.0871ZM242.688 39.58C245.407 39.58 247.657 38.7992 249.298 37.1238L247.87 35.7242C246.695 36.9235 245.014 37.58 242.688 37.58V39.58ZM249.298 37.1239C250.993 35.395 251.74 32.8168 251.74 29.604H249.74C249.74 32.5512 249.05 34.5197 247.87 35.7241L249.298 37.1239ZM251.74 29.604V10.244H249.74V29.604H251.74ZM250.74 11.244H253.82V9.244H250.74V11.244ZM252.82 10.244V29.56H254.82V10.244H252.82ZM252.82 29.56C252.82 33.2893 251.828 35.917 250.01 37.6327L251.382 39.0873C253.73 36.8723 254.82 33.6334 254.82 29.56H252.82ZM250.005 37.6376C248.168 39.3954 245.747 40.308 242.644 40.308V42.308C246.17 42.308 249.117 41.2553 251.388 39.0824L250.005 37.6376ZM242.644 40.308C239.541 40.308 237.102 39.3954 235.234 37.6327L233.862 39.0873C236.159 41.2553 239.117 42.308 242.644 42.308V40.308ZM235.24 37.6376C233.448 35.9227 232.468 33.2932 232.468 29.56H230.468C230.468 33.6295 231.542 36.8666 233.857 39.0824L235.24 37.6376ZM232.468 29.56V10.244H230.468V29.56H232.468ZM231.468 11.244H234.548V9.244H231.468V11.244ZM262.67 38.272L261.815 37.7538L260.895 39.272H262.67V38.272ZM278.378 38.272H279.378V37.272H278.378V38.272ZM278.378 41V42H279.378V41H278.378ZM259.062 41H258.062V42H259.062V41ZM259.062 38.536L258.207 38.0178L258.062 38.2567V38.536H259.062ZM274.55 12.972L275.405 13.4902L276.325 11.972H274.55V12.972ZM259.326 12.972H258.326V13.972H259.326V12.972ZM259.326 10.244V9.244H258.326V10.244H259.326ZM278.158 10.244H279.158V9.244H278.158V10.244ZM278.158 12.708L279.013 13.2262L279.158 12.9873V12.708H278.158ZM262.67 39.272H278.378V37.272H262.67V39.272ZM277.378 38.272V41H279.378V38.272H277.378ZM278.378 40H259.062V42H278.378V40ZM260.062 41V38.536H258.062V41H260.062ZM259.917 39.0542L275.405 13.4902L273.695 12.4538L258.207 38.0178L259.917 39.0542ZM274.55 11.972H259.326V13.972H274.55V11.972ZM260.326 12.972V10.244H258.326V12.972H260.326ZM259.326 11.244H278.158V9.244H259.326V11.244ZM277.158 10.244V12.708H279.158V10.244H277.158ZM277.303 12.1898L261.815 37.7538L263.525 38.7902L279.013 13.2262L277.303 12.1898ZM286.887 12.752V11.752H285.887V12.752H286.887ZM286.887 24.236H285.887V25.236H286.887V24.236ZM298.547 24.236H299.547V23.236H298.547V24.236ZM298.547 26.788V27.788H299.547V26.788H298.547ZM286.887 26.788V25.788H285.887V26.788H286.887ZM286.887 38.448H285.887V39.448H286.887V38.448ZM299.867 38.448H300.867V37.448H299.867V38.448ZM299.867 41V42H300.867V41H299.867ZM283.807 41H282.807V42H283.807V41ZM283.807 10.2V9.2H282.807V10.2H283.807ZM299.867 10.2H300.867V9.2H299.867V10.2ZM299.867 12.752V13.752H300.867V12.752H299.867ZM285.887 12.752V24.236H287.887V12.752H285.887ZM286.887 25.236H298.547V23.236H286.887V25.236ZM297.547 24.236V26.788H299.547V24.236H297.547ZM298.547 25.788H286.887V27.788H298.547V25.788ZM285.887 26.788V38.448H287.887V26.788H285.887ZM286.887 39.448H299.867V37.448H286.887V39.448ZM298.867 38.448V41H300.867V38.448H298.867ZM299.867 40H283.807V42H299.867V40ZM284.807 41V10.2H282.807V41H284.807ZM283.807 11.2H299.867V9.2H283.807V11.2ZM298.867 10.2V12.752H300.867V10.2H298.867ZM299.867 11.752H286.887V13.752H299.867V11.752ZM326.264 10.244L327.15 10.7085L327.918 9.244H326.264V10.244ZM316.408 29.032L315.522 28.5674L315.408 28.7856V29.032H316.408ZM316.408 41V42H317.408V41H316.408ZM313.328 41H312.328V42H313.328V41ZM313.328 29.032H314.328V28.7837L314.212 28.5642L313.328 29.032ZM303.384 10.244V9.244H301.723L302.5 10.7118L303.384 10.244ZM306.86 10.244L307.754 9.7958L307.477 9.244H306.86V10.244ZM314.868 26.216L313.974 26.6642L314.87 28.4521L315.763 26.6622L314.868 26.216ZM322.832 10.244V9.244H322.213L321.937 9.79777L322.832 10.244ZM325.378 9.77945L315.522 28.5674L317.294 29.4965L327.15 10.7085L325.378 9.77945ZM315.408 29.032V41H317.408V29.032H315.408ZM316.408 40H313.328V42H316.408V40ZM314.328 41V29.032H312.328V41H314.328ZM314.212 28.5642L304.268 9.7762L302.5 10.7118L312.444 29.4998L314.212 28.5642ZM303.384 11.244H306.86V9.244H303.384V11.244ZM305.966 10.6922L313.974 26.6642L315.762 25.7678L307.754 9.7958L305.966 10.6922ZM315.763 26.6622L323.727 10.6902L321.937 9.79777L313.973 25.7698L315.763 26.6622ZM322.832 11.244H326.264V9.244H322.832V11.244ZM360.71 12.092L360.259 12.9843L360.259 12.9843L360.71 12.092ZM366.298 17.416L367.172 16.9294L367.172 16.9294L366.298 17.416ZM366.298 33.916L367.169 34.4073L367.172 34.4026L366.298 33.916ZM360.71 39.196L361.153 40.0926L361.162 40.0883L360.71 39.196ZM342.846 41H341.846V42H342.846V41ZM342.846 10.244V9.244H341.846V10.244H342.846ZM361.722 35.104L361.015 34.3969L361.015 34.3969L361.722 35.104ZM361.722 16.228L361.006 16.9259L361.015 16.9351L361.722 16.228ZM345.926 12.796V11.796H344.926V12.796H345.926ZM345.926 38.448H344.926V39.448H345.926V38.448ZM351.954 11.244C355.238 11.244 357.994 11.8384 360.259 12.9843L361.162 11.1997C358.557 9.88157 355.476 9.244 351.954 9.244V11.244ZM360.259 12.9843C362.521 14.1289 364.234 15.7648 365.425 17.9026L367.172 16.9294C365.781 14.4325 363.769 12.5191 361.162 11.1997L360.259 12.9843ZM365.425 17.9026C366.617 20.0434 367.234 22.6261 367.234 25.688H369.234C369.234 22.3552 368.561 19.4233 367.172 16.9294L365.425 17.9026ZM367.234 25.688C367.234 28.7188 366.618 31.2873 365.425 33.4294L367.172 34.4026C368.56 31.91 369.234 28.9932 369.234 25.688H367.234ZM365.427 33.4247C364.238 35.5336 362.524 37.1573 360.259 38.3037L361.162 40.0883C363.766 38.7707 365.777 36.8744 367.169 34.4073L365.427 33.4247ZM360.267 38.2994C358.001 39.419 355.241 40 351.954 40V42C355.473 42 358.55 41.3783 361.153 40.0926L360.267 38.2994ZM351.954 40H342.846V42H351.954V40ZM343.846 41V10.244H341.846V41H343.846ZM342.846 11.244H351.954V9.244H342.846V11.244ZM351.954 39.448C356.405 39.448 359.953 38.2872 362.429 35.8111L361.015 34.3969C359.033 36.3794 356.069 37.448 351.954 37.448V39.448ZM362.429 35.8111C364.921 33.3194 366.11 29.8997 366.11 25.688H364.11C364.11 29.5136 363.041 32.3713 361.015 34.3969L362.429 35.8111ZM366.11 25.688C366.11 21.4493 364.922 18.0139 362.429 15.5209L361.015 16.9351C363.039 18.9594 364.11 21.8307 364.11 25.688H366.11ZM362.438 15.5301C359.963 12.9901 356.411 11.796 351.954 11.796V13.796C356.062 13.796 359.022 14.8899 361.006 16.9259L362.438 15.5301ZM351.954 11.796H345.926V13.796H351.954V11.796ZM344.926 12.796V38.448H346.926V12.796H344.926ZM345.926 39.448H351.954V37.448H345.926V39.448ZM376.993 12.752V11.752H375.993V12.752H376.993ZM376.993 24.236H375.993V25.236H376.993V24.236ZM388.653 24.236H389.653V23.236H388.653V24.236ZM388.653 26.788V27.788H389.653V26.788H388.653ZM376.993 26.788V25.788H375.993V26.788H376.993ZM376.993 38.448H375.993V39.448H376.993V38.448ZM389.973 38.448H390.973V37.448H389.973V38.448ZM389.973 41V42H390.973V41H389.973ZM373.913 41H372.913V42H373.913V41ZM373.913 10.2V9.2H372.913V10.2H373.913ZM389.973 10.2H390.973V9.2H389.973V10.2ZM389.973 12.752V13.752H390.973V12.752H389.973ZM385.397 3.556L385.899 4.42085L386.397 4.13178V3.556H385.397ZM376.377 8.792H375.377V10.5288L376.879 9.65685L376.377 8.792ZM376.377 6.416L375.847 5.56777L375.377 5.86147V6.416H376.377ZM385.397 0.783998H386.397V-1.01932L384.867 -0.0642322L385.397 0.783998ZM375.993 12.752V24.236H377.993V12.752H375.993ZM376.993 25.236H388.653V23.236H376.993V25.236ZM387.653 24.236V26.788H389.653V24.236H387.653ZM388.653 25.788H376.993V27.788H388.653V25.788ZM375.993 26.788V38.448H377.993V26.788H375.993ZM376.993 39.448H389.973V37.448H376.993V39.448ZM388.973 38.448V41H390.973V38.448H388.973ZM389.973 40H373.913V42H389.973V40ZM374.913 41V10.2H372.913V41H374.913ZM373.913 11.2H389.973V9.2H373.913V11.2ZM388.973 10.2V12.752H390.973V10.2H388.973ZM389.973 11.752H376.993V13.752H389.973V11.752ZM384.895 2.69115L375.875 7.92715L376.879 9.65685L385.899 4.42085L384.895 2.69115ZM377.377 8.792V6.416H375.377V8.792H377.377ZM376.906 7.26423L385.926 1.63223L384.867 -0.0642322L375.847 5.56777L376.906 7.26423ZM384.397 0.783998V3.556H386.397V0.783998H384.397ZM420.417 10.244L421.353 10.5985L421.866 9.244H420.417V10.244ZM408.757 41V42H409.448L409.693 41.3545L408.757 41ZM405.237 41L404.302 41.3545L404.547 42H405.237V41ZM393.577 10.244V9.244H392.129L392.642 10.5985L393.577 10.244ZM396.921 10.244L397.86 9.89899L397.619 9.244H396.921V10.244ZM406.997 37.656L406.059 38.001L406.993 40.5434L407.935 38.0037L406.997 37.656ZM417.161 10.244V9.244H416.466L416.224 9.89634L417.161 10.244ZM419.482 9.8895L407.822 40.6455L409.693 41.3545L421.353 10.5985L419.482 9.8895ZM408.757 40H405.237V42H408.757V40ZM406.173 40.6455L394.513 9.8895L392.642 10.5985L404.302 41.3545L406.173 40.6455ZM393.577 11.244H396.921V9.244H393.577V11.244ZM395.983 10.589L406.059 38.001L407.936 37.311L397.86 9.89899L395.983 10.589ZM407.935 38.0037L418.099 10.5917L416.224 9.89634L406.06 37.3083L407.935 38.0037ZM417.161 11.244H420.417V9.244H417.161V11.244ZM428.125 12.752V11.752H427.125V12.752H428.125ZM428.125 24.236H427.125V25.236H428.125V24.236ZM439.785 24.236H440.785V23.236H439.785V24.236ZM439.785 26.788V27.788H440.785V26.788H439.785ZM428.125 26.788V25.788H427.125V26.788H428.125ZM428.125 38.448H427.125V39.448H428.125V38.448ZM441.105 38.448H442.105V37.448H441.105V38.448ZM441.105 41V42H442.105V41H441.105ZM425.045 41H424.045V42H425.045V41ZM425.045 10.2V9.2H424.045V10.2H425.045ZM441.105 10.2H442.105V9.2H441.105V10.2ZM441.105 12.752V13.752H442.105V12.752H441.105ZM427.125 12.752V24.236H429.125V12.752H427.125ZM428.125 25.236H439.785V23.236H428.125V25.236ZM438.785 24.236V26.788H440.785V24.236H438.785ZM439.785 25.788H428.125V27.788H439.785V25.788ZM427.125 26.788V38.448H429.125V26.788H427.125ZM428.125 39.448H441.105V37.448H428.125V39.448ZM440.105 38.448V41H442.105V38.448H440.105ZM441.105 40H425.045V42H441.105V40ZM426.045 41V10.2H424.045V41H426.045ZM425.045 11.2H441.105V9.2H425.045V11.2ZM440.105 10.2V12.752H442.105V10.2H440.105ZM441.105 11.752H428.125V13.752H441.105V11.752ZM450.254 38.492H449.254V39.492H450.254V38.492ZM461.298 38.492H462.298V37.492H461.298V38.492ZM461.298 41V42H462.298V41H461.298ZM447.174 41H446.174V42H447.174V41ZM447.174 10.244V9.244H446.174V10.244H447.174ZM450.254 10.244H451.254V9.244H450.254V10.244ZM450.254 39.492H461.298V37.492H450.254V39.492ZM460.298 38.492V41H462.298V38.492H460.298ZM461.298 40H447.174V42H461.298V40ZM448.174 41V10.244H446.174V41H448.174ZM447.174 11.244H450.254V9.244H447.174V11.244ZM449.254 10.244V38.492H451.254V10.244H449.254ZM471.766 39.328L471.263 40.1922L471.271 40.1969L471.766 39.328ZM466.266 33.74L465.389 34.2211L465.393 34.2275L465.396 34.2338L466.266 33.74ZM466.266 17.504L465.394 17.0147L465.392 17.0184L466.266 17.504ZM471.766 11.916L472.261 12.785L472.269 12.7802L471.766 11.916ZM487.298 11.916L486.795 12.7802L486.803 12.7849L487.298 11.916ZM492.754 17.504L491.877 17.9851L491.88 17.9896L492.754 17.504ZM492.754 33.74L493.628 34.2256L493.63 34.2211L492.754 33.74ZM487.298 39.328L487.793 40.197L487.801 40.1922L487.298 39.328ZM485.67 37.04L486.172 37.9048L486.172 37.9048L485.67 37.04ZM489.982 32.508L490.863 32.9813L490.866 32.9759L489.982 32.508ZM489.982 18.736L490.863 18.2627L490.863 18.2627L489.982 18.736ZM485.67 14.204L486.172 13.3392L486.172 13.3392L485.67 14.204ZM469.038 18.736L468.157 18.2627L468.157 18.2627L469.038 18.736ZM469.038 32.508L468.154 32.9759L468.157 32.9813L469.038 32.508ZM473.35 37.04L473.852 36.1752L473.852 36.1752L473.35 37.04ZM479.51 40.308C476.826 40.308 474.417 39.6874 472.261 38.4591L471.271 40.1969C473.749 41.6086 476.503 42.308 479.51 42.308V40.308ZM472.269 38.4638C470.107 37.2052 468.399 35.4716 467.135 33.2462L465.396 34.2338C466.831 36.7604 468.79 38.7522 471.263 40.1922L472.269 38.4638ZM467.142 33.2589C465.911 31.0155 465.286 28.4705 465.286 25.6H463.286C463.286 28.7721 463.98 31.6538 465.389 34.2211L467.142 33.2589ZM465.286 25.6C465.286 22.7293 465.911 20.201 467.14 17.9896L465.392 17.0184C463.98 19.559 463.286 22.4281 463.286 25.6H465.286ZM467.138 17.9932C468.402 15.7407 470.107 14.0118 472.261 12.7849L471.271 11.0471C468.79 12.4602 466.829 14.4566 465.394 17.0147L467.138 17.9932ZM472.269 12.7802C474.424 11.5253 476.83 10.892 479.51 10.892V8.892C476.499 8.892 473.742 9.60806 471.263 11.0518L472.269 12.7802ZM479.51 10.892C482.221 10.892 484.641 11.5262 486.795 12.7802L487.801 11.0518C485.32 9.60713 482.548 8.892 479.51 8.892V10.892ZM486.803 12.7849C488.955 14.0107 490.643 15.7369 491.877 17.9851L493.63 17.0229C492.224 14.4604 490.276 12.4613 487.793 11.0471L486.803 12.7849ZM491.88 17.9896C493.108 20.201 493.734 22.7293 493.734 25.6H495.734C495.734 22.4281 495.039 19.559 493.628 17.0184L491.88 17.9896ZM493.734 25.6C493.734 28.4705 493.108 31.0155 491.877 33.2589L493.63 34.2211C495.039 31.6538 495.734 28.7721 495.734 25.6H493.734ZM491.88 33.2544C490.646 35.4754 488.954 37.2063 486.795 38.4638L487.801 40.1922C490.276 38.751 492.222 36.7566 493.628 34.2256L491.88 33.2544ZM486.803 38.4591C484.648 39.6865 482.225 40.308 479.51 40.308V42.308C482.544 42.308 485.313 41.6095 487.793 40.1969L486.803 38.4591ZM479.51 39.624C481.958 39.624 484.188 39.0571 486.172 37.9048L485.168 36.1752C483.515 37.1349 481.637 37.624 479.51 37.624V39.624ZM486.172 37.9048C488.161 36.7501 489.725 35.0993 490.863 32.9813L489.101 32.0347C488.127 33.8474 486.816 35.2179 485.168 36.1752L486.172 37.9048ZM490.866 32.9759C492.009 30.816 492.566 28.3481 492.566 25.6H490.566C490.566 28.0733 490.067 30.2107 489.098 32.0401L490.866 32.9759ZM492.566 25.6C492.566 22.8523 492.009 20.3965 490.863 18.2627L489.101 19.2093C490.066 21.0062 490.566 23.1263 490.566 25.6H492.566ZM490.863 18.2627C489.725 16.1447 488.161 14.4939 486.172 13.3392L485.168 15.0688C486.816 16.0261 488.127 17.3966 489.101 19.2093L490.863 18.2627ZM486.172 13.3392C484.188 12.1869 481.958 11.62 479.51 11.62V13.62C481.637 13.62 483.515 14.109 485.168 15.0688L486.172 13.3392ZM479.51 11.62C477.061 11.62 474.832 12.1869 472.848 13.3392L473.852 15.0688C475.505 14.109 477.382 13.62 479.51 13.62V11.62ZM472.848 13.3392C470.859 14.4939 469.295 16.1447 468.157 18.2627L469.919 19.2093C470.893 17.3966 472.203 16.0261 473.852 15.0688L472.848 13.3392ZM468.157 18.2627C467.01 20.3965 466.454 22.8523 466.454 25.6H468.454C468.454 23.1263 468.953 21.0062 469.919 19.2093L468.157 18.2627ZM466.454 25.6C466.454 28.3481 467.011 30.816 468.154 32.9759L469.922 32.0401C468.953 30.2107 468.454 28.0733 468.454 25.6H466.454ZM468.157 32.9813C469.295 35.0993 470.859 36.7501 472.848 37.9048L473.852 36.1752C472.203 35.2179 470.893 33.8474 469.919 32.0347L468.157 32.9813ZM472.848 37.9048C474.832 39.0571 477.061 39.624 479.51 39.624V37.624C477.382 37.624 475.505 37.1349 473.852 36.1752L472.848 37.9048ZM517.442 25.468L518.123 26.1995L518.123 26.1995L517.442 25.468ZM503.45 27.888V26.888H502.45V27.888H503.45ZM503.45 41V42H504.45V41H503.45ZM500.37 41H499.37V42H500.37V41ZM500.37 10.244V9.244H499.37V10.244H500.37ZM517.398 12.664L516.716 13.3955L516.722 13.4012L517.398 12.664ZM503.45 12.84V11.84H502.45V12.84H503.45ZM503.45 25.248H502.45V26.248H503.45V25.248ZM519.038 19.088C519.038 21.4862 518.263 23.3353 516.76 24.7365L518.123 26.1995C520.082 24.374 521.038 21.9698 521.038 19.088H519.038ZM516.76 24.7365C515.284 26.1119 512.978 26.888 509.654 26.888V28.888C513.252 28.888 516.138 28.0507 518.123 26.1995L516.76 24.7365ZM509.654 26.888H503.45V28.888H509.654V26.888ZM502.45 27.888V41H504.45V27.888H502.45ZM503.45 40H500.37V42H503.45V40ZM501.37 41V10.244H499.37V41H501.37ZM500.37 11.244H509.654V9.244H500.37V11.244ZM509.654 11.244C512.946 11.244 515.239 12.0188 516.716 13.3955L518.079 11.9325C516.095 10.0825 513.226 9.244 509.654 9.244V11.244ZM516.722 13.4012C518.25 14.8016 519.038 16.6623 519.038 19.088H521.038C521.038 16.175 520.066 13.753 518.073 11.9268L516.722 13.4012ZM509.654 26.248C512.178 26.248 514.258 25.7127 515.715 24.4686C517.203 23.1986 517.87 21.3405 517.87 19.088H515.87C515.87 20.9422 515.334 22.1641 514.416 22.9474C513.468 23.7567 511.94 24.248 509.654 24.248V26.248ZM517.87 19.088C517.87 16.8491 517.241 14.9898 515.832 13.6892L514.475 15.1588C515.354 15.9702 515.87 17.2203 515.87 19.088H517.87ZM515.832 13.6892C514.418 12.3838 512.28 11.84 509.654 11.84V13.84C512.072 13.84 513.602 14.3522 514.475 15.1588L515.832 13.6892ZM509.654 11.84H503.45V13.84H509.654V11.84ZM502.45 12.84V25.248H504.45V12.84H502.45ZM503.45 26.248H509.654V24.248H503.45V26.248ZM542.278 25.468L542.959 26.1995L542.959 26.1995L542.278 25.468ZM528.286 27.888V26.888H527.286V27.888H528.286ZM528.286 41V42H529.286V41H528.286ZM525.206 41H524.206V42H525.206V41ZM525.206 10.244V9.244H524.206V10.244H525.206ZM542.234 12.664L541.552 13.3955L541.558 13.4012L542.234 12.664ZM528.286 12.84V11.84H527.286V12.84H528.286ZM528.286 25.248H527.286V26.248H528.286V25.248ZM543.874 19.088C543.874 21.4862 543.099 23.3353 541.596 24.7365L542.959 26.1995C544.918 24.374 545.874 21.9698 545.874 19.088H543.874ZM541.596 24.7365C540.12 26.1119 537.814 26.888 534.49 26.888V28.888C538.088 28.888 540.974 28.0507 542.959 26.1995L541.596 24.7365ZM534.49 26.888H528.286V28.888H534.49V26.888ZM527.286 27.888V41H529.286V27.888H527.286ZM528.286 40H525.206V42H528.286V40ZM526.206 41V10.244H524.206V41H526.206ZM525.206 11.244H534.49V9.244H525.206V11.244ZM534.49 11.244C537.781 11.244 540.075 12.0188 541.552 13.3955L542.915 11.9325C540.931 10.0825 538.062 9.244 534.49 9.244V11.244ZM541.558 13.4012C543.086 14.8016 543.874 16.6623 543.874 19.088H545.874C545.874 16.175 544.901 13.753 542.909 11.9268L541.558 13.4012ZM534.49 26.248C537.014 26.248 539.093 25.7127 540.551 24.4686C542.038 23.1986 542.706 21.3405 542.706 19.088H540.706C540.706 20.9422 540.17 22.1641 539.252 22.9474C538.304 23.7567 536.776 24.248 534.49 24.248V26.248ZM542.706 19.088C542.706 16.8491 542.077 14.9898 540.668 13.6892L539.311 15.1588C540.19 15.9702 540.706 17.2203 540.706 19.088H542.706ZM540.668 13.6892C539.254 12.3838 537.116 11.84 534.49 11.84V13.84C536.908 13.84 538.437 14.3522 539.311 15.1588L540.668 13.6892ZM534.49 11.84H528.286V13.84H534.49V11.84ZM527.286 12.84V25.248H529.286V12.84H527.286ZM528.286 26.248H534.49V24.248H528.286V26.248ZM553.121 12.752V11.752H552.121V12.752H553.121ZM553.121 24.236H552.121V25.236H553.121V24.236ZM564.781 24.236H565.781V23.236H564.781V24.236ZM564.781 26.788V27.788H565.781V26.788H564.781ZM553.121 26.788V25.788H552.121V26.788H553.121ZM553.121 38.448H552.121V39.448H553.121V38.448ZM566.101 38.448H567.101V37.448H566.101V38.448ZM566.101 41V42H567.101V41H566.101ZM550.041 41H549.041V42H550.041V41ZM550.041 10.2V9.2H549.041V10.2H550.041ZM566.101 10.2H567.101V9.2H566.101V10.2ZM566.101 12.752V13.752H567.101V12.752H566.101ZM552.121 12.752V24.236H554.121V12.752H552.121ZM553.121 25.236H564.781V23.236H553.121V25.236ZM563.781 24.236V26.788H565.781V24.236H563.781ZM564.781 25.788H553.121V27.788H564.781V25.788ZM552.121 26.788V38.448H554.121V26.788H552.121ZM553.121 39.448H566.101V37.448H553.121V39.448ZM565.101 38.448V41H567.101V38.448H565.101ZM566.101 40H550.041V42H566.101V40ZM551.041 41V10.2H549.041V41H551.041ZM550.041 11.2H566.101V9.2H550.041V11.2ZM565.101 10.2V12.752H567.101V10.2H565.101ZM566.101 11.752H553.121V13.752H566.101V11.752ZM575.118 10.244H576.118V9.244H575.118V10.244ZM577.274 36.38L576.56 37.08L576.567 37.0871L577.274 36.38ZM589.154 36.424L588.44 35.7241L588.44 35.7242L589.154 36.424ZM591.31 10.244V9.244H590.31V10.244H591.31ZM594.39 10.244H595.39V9.244H594.39V10.244ZM591.266 38.36L590.58 37.6327L590.575 37.6376L591.266 38.36ZM575.118 38.36L574.427 39.0824L574.432 39.0873L575.118 38.36ZM572.038 10.244V9.244H571.038V10.244H572.038ZM574.118 10.244V29.604H576.118V10.244H574.118ZM574.118 29.604C574.118 32.7907 574.867 35.3525 576.56 37.0799L577.989 35.6801C576.807 34.4741 576.118 32.5186 576.118 29.604H574.118ZM576.567 37.0871C578.261 38.7805 580.532 39.58 583.258 39.58V37.58C580.94 37.58 579.221 36.9128 577.981 35.6729L576.567 37.0871ZM583.258 39.58C585.978 39.58 588.228 38.7992 589.869 37.1238L588.44 35.7242C587.265 36.9235 585.584 37.58 583.258 37.58V39.58ZM589.869 37.1239C591.563 35.395 592.31 32.8168 592.31 29.604H590.31C590.31 32.5512 589.62 34.5197 588.44 35.7241L589.869 37.1239ZM592.31 29.604V10.244H590.31V29.604H592.31ZM591.31 11.244H594.39V9.244H591.31V11.244ZM593.39 10.244V29.56H595.39V10.244H593.39ZM593.39 29.56C593.39 33.2893 592.398 35.917 590.58 37.6327L591.953 39.0873C594.3 36.8723 595.39 33.6334 595.39 29.56H593.39ZM590.575 37.6376C588.738 39.3954 586.317 40.308 583.214 40.308V42.308C586.741 42.308 589.688 41.2553 591.958 39.0824L590.575 37.6376ZM583.214 40.308C580.112 40.308 577.673 39.3954 575.805 37.6327L574.432 39.0873C576.729 41.2553 579.688 42.308 583.214 42.308V40.308ZM575.81 37.6376C574.018 35.9227 573.038 33.2932 573.038 29.56H571.038C571.038 33.6295 572.112 36.8666 574.427 39.0824L575.81 37.6376ZM573.038 29.56V10.244H571.038V29.56H573.038ZM572.038 11.244H575.118V9.244H572.038V11.244ZM617.628 41L616.768 41.5097L617.058 42H617.628V41ZM610.016 28.152L610.877 27.6423L610.586 27.152H610.016V28.152ZM604.34 28.152V27.152H603.34V28.152H604.34ZM604.34 41V42H605.34V41H604.34ZM601.26 41H600.26V42H601.26V41ZM601.26 10.244V9.244H600.26V10.244H601.26ZM618.288 12.708L617.606 13.4391L617.612 13.4447L618.288 12.708ZM619.036 24.896L618.261 24.2643L618.26 24.266L619.036 24.896ZM613.404 27.932L613.219 26.9493L611.801 27.2162L612.549 28.4503L613.404 27.932ZM621.324 41V42H623.1L622.179 40.4817L621.324 41ZM604.34 25.644H603.34V26.644H604.34V25.644ZM615.956 23.884L615.267 23.1598L615.258 23.1682L615.956 23.884ZM616.044 14.512L615.355 15.2371L615.365 15.2461L616.044 14.512ZM604.34 12.84V11.84H603.34V12.84H604.34ZM618.489 40.4903L610.877 27.6423L609.156 28.6617L616.768 41.5097L618.489 40.4903ZM610.016 27.152H604.34V29.152H610.016V27.152ZM603.34 28.152V41H605.34V28.152H603.34ZM604.34 40H601.26V42H604.34V40ZM602.26 41V10.244H600.26V41H602.26ZM601.26 11.244H610.5V9.244H601.26V11.244ZM610.5 11.244C613.786 11.244 616.097 12.0308 617.606 13.4391L618.971 11.9769C616.959 10.0999 614.078 9.244 610.5 9.244V11.244ZM617.612 13.4447C619.173 14.878 619.972 16.7558 619.972 19.176H621.972C621.972 16.2575 620.982 13.8233 618.965 11.9713L617.612 13.4447ZM619.972 19.176C619.972 21.1976 619.393 22.8754 618.261 24.2643L619.811 25.5277C621.261 23.7486 621.972 21.6131 621.972 19.176H619.972ZM618.26 24.266C617.184 25.5919 615.544 26.5117 613.219 26.9493L613.589 28.9147C616.251 28.4136 618.366 27.3095 619.813 25.526L618.26 24.266ZM612.549 28.4503L620.469 41.5183L622.179 40.4817L614.259 27.4137L612.549 28.4503ZM621.324 40H617.628V42H621.324V40ZM604.34 26.644H610.544V24.644H604.34V26.644ZM610.544 26.644C613.098 26.644 615.197 26.0213 616.655 24.5998L615.258 23.1682C614.31 24.0933 612.802 24.644 610.544 24.644V26.644ZM616.646 24.6081C618.107 23.2163 618.804 21.3687 618.804 19.176H616.804C616.804 20.914 616.269 22.205 615.267 23.1599L616.646 24.6081ZM618.804 19.176C618.804 16.9523 618.153 15.1002 616.723 13.7779L615.365 15.2461C616.282 16.0944 616.804 17.3517 616.804 19.176H618.804ZM616.733 13.787C615.293 12.4192 613.141 11.84 610.5 11.84V13.84C612.905 13.84 614.449 14.3754 615.355 15.237L616.733 13.787ZM610.5 11.84H604.34V13.84H610.5V11.84ZM603.34 12.84V25.644H605.34V12.84H603.34ZM676.471 10.244L677.433 10.5165L677.793 9.244H676.471V10.244ZM667.759 41V42H668.515L668.721 41.2725L667.759 41ZM664.327 41L663.368 41.2832L663.579 42H664.327V41ZM656.583 14.776L657.542 14.4928L656.593 11.2815L655.625 14.4869L656.583 14.776ZM648.663 41L648.676 41.9999L649.408 41.9903L649.62 41.2891L648.663 41ZM645.319 41.044L644.355 41.3111L644.561 42.0541L645.332 42.0439L645.319 41.044ZM636.783 10.244V9.244H635.468L635.819 10.5111L636.783 10.244ZM640.083 10.244L641.05 9.99145L640.855 9.244H640.083V10.244ZM647.123 37.216L646.155 37.4686L647.069 40.9686L648.083 37.4963L647.123 37.216ZM654.999 10.244V9.244H654.249L654.039 9.9637L654.999 10.244ZM658.431 10.244L659.393 9.97093L659.186 9.244H658.431V10.244ZM666.087 37.216L665.125 37.4891L666.124 41.01L667.054 37.47L666.087 37.216ZM673.171 10.244V9.244H672.399L672.203 9.98997L673.171 10.244ZM675.509 9.97146L666.797 40.7275L668.721 41.2725L677.433 10.5165L675.509 9.97146ZM667.759 40H664.327V42H667.759V40ZM665.286 40.7168L657.542 14.4928L655.624 15.0592L663.368 41.2832L665.286 40.7168ZM655.625 14.4869L647.705 40.7109L649.62 41.2891L657.54 15.0651L655.625 14.4869ZM648.65 40.0001L645.306 40.0441L645.332 42.0439L648.676 41.9999L648.65 40.0001ZM646.282 40.7769L637.746 9.97692L635.819 10.5111L644.355 41.3111L646.282 40.7769ZM636.783 11.244H640.083V9.244H636.783V11.244ZM639.115 10.4965L646.155 37.4686L648.09 36.9634L641.05 9.99145L639.115 10.4965ZM648.083 37.4963L655.959 10.5243L654.039 9.9637L646.163 36.9357L648.083 37.4963ZM654.999 11.244H658.431V9.244H654.999V11.244ZM657.469 10.5171L665.125 37.4891L667.049 36.9429L659.393 9.97093L657.469 10.5171ZM667.054 37.47L674.138 10.498L672.203 9.98997L665.119 36.962L667.054 37.47ZM673.171 11.244H676.471V9.244H673.171V11.244ZM684.262 12.752V11.752H683.262V12.752H684.262ZM684.262 24.236H683.262V25.236H684.262V24.236ZM695.922 24.236H696.922V23.236H695.922V24.236ZM695.922 26.788V27.788H696.922V26.788H695.922ZM684.262 26.788V25.788H683.262V26.788H684.262ZM684.262 38.448H683.262V39.448H684.262V38.448ZM697.242 38.448H698.242V37.448H697.242V38.448ZM697.242 41V42H698.242V41H697.242ZM681.182 41H680.182V42H681.182V41ZM681.182 10.2V9.2H680.182V10.2H681.182ZM697.242 10.2H698.242V9.2H697.242V10.2ZM697.242 12.752V13.752H698.242V12.752H697.242ZM683.262 12.752V24.236H685.262V12.752H683.262ZM684.262 25.236H695.922V23.236H684.262V25.236ZM694.922 24.236V26.788H696.922V24.236H694.922ZM695.922 25.788H684.262V27.788H695.922V25.788ZM683.262 26.788V38.448H685.262V26.788H683.262ZM684.262 39.448H697.242V37.448H684.262V39.448ZM696.242 38.448V41H698.242V38.448H696.242ZM697.242 40H681.182V42H697.242V40ZM682.182 41V10.2H680.182V41H682.182ZM681.182 11.2H697.242V9.2H681.182V11.2ZM696.242 10.2V12.752H698.242V10.2H696.242ZM697.242 11.752H684.262V13.752H697.242V11.752ZM717.699 25.116L717.42 24.1558L717.516 26.0991L717.699 25.116ZM722.099 27.756L722.866 27.1143L722.866 27.1143L722.099 27.756ZM722.715 36.996L721.868 36.4642L721.865 36.4696L722.715 36.996ZM719.327 39.944L719.753 40.8488L719.76 40.8454L719.767 40.8419L719.327 39.944ZM703.311 41H702.311V42H703.311V41ZM703.311 10.244V9.244H702.311V10.244H703.311ZM720.735 12.4L720.07 13.1467L720.077 13.1526L720.735 12.4ZM721.659 22.652L722.412 23.3106L722.42 23.3013L721.659 22.652ZM706.391 23.84H705.391V24.84H706.391V23.84ZM718.359 22.388L719.015 23.143L719.016 23.1418L718.359 22.388ZM718.359 14.292L717.703 15.0471L717.713 15.0554L718.359 14.292ZM706.391 12.84V11.84H705.391V12.84H706.391ZM718.931 36.82L718.289 36.0532L718.28 36.0607L718.931 36.82ZM718.843 28.064L718.189 28.8208L718.199 28.8287L718.208 28.8364L718.843 28.064ZM706.391 26.392V25.392H705.391V26.392H706.391ZM706.391 38.404H705.391V39.404H706.391V38.404ZM717.516 26.0991C719.003 26.3763 720.268 27.1261 721.332 28.3977L722.866 27.1143C721.525 25.5112 719.857 24.501 717.882 24.1329L717.516 26.0991ZM721.332 28.3977C722.381 29.6517 722.903 31.0955 722.903 32.772H724.903C724.903 30.6352 724.222 28.7349 722.866 27.1143L721.332 28.3977ZM722.903 32.772C722.903 34.1472 722.556 35.3694 721.868 36.4642L723.562 37.5278C724.458 36.0999 724.903 34.5061 724.903 32.772H722.903ZM721.865 36.4696C721.215 37.5188 720.24 38.3829 718.887 39.0461L719.767 40.8419C721.406 40.0385 722.689 38.9372 723.565 37.5224L721.865 36.4696ZM718.901 39.0392C717.568 39.6664 715.932 40 713.959 40V42C716.152 42 718.094 41.6296 719.753 40.8488L718.901 39.0392ZM713.959 40H703.311V42H713.959V40ZM704.311 41V10.244H702.311V41H704.311ZM703.311 11.244H713.651V9.244H703.311V11.244ZM713.651 11.244C716.621 11.244 718.706 11.9316 720.07 13.1467L721.4 11.6533C719.537 9.99375 716.899 9.244 713.651 9.244V11.244ZM720.077 13.1526C721.491 14.3898 722.199 15.9725 722.199 17.988H724.199C724.199 15.4275 723.265 13.2848 721.394 11.6474L720.077 13.1526ZM722.199 17.988C722.199 19.7078 721.74 21.0165 720.898 22.0027L722.42 23.3013C723.631 21.8821 724.199 20.0815 724.199 17.988H722.199ZM720.906 21.9935C720.015 23.0119 718.865 23.7355 717.42 24.1558L717.978 26.0762C719.76 25.5579 721.249 24.6387 722.412 23.3105L720.906 21.9935ZM706.391 24.84H713.563V22.84H706.391V24.84ZM713.563 24.84C715.789 24.84 717.656 24.3233 719.015 23.143L717.703 21.633C716.833 22.3887 715.503 22.84 713.563 22.84V24.84ZM719.016 23.1418C720.41 21.9268 721.075 20.2706 721.075 18.296H719.075C719.075 19.7828 718.596 20.8546 717.702 21.6342L719.016 23.1418ZM721.075 18.296C721.075 16.3451 720.405 14.7136 719.005 13.5286L717.713 15.0554C718.601 15.8064 719.075 16.8443 719.075 18.296H721.075ZM719.015 13.537C717.649 12.3511 715.732 11.84 713.431 11.84V13.84C715.471 13.84 716.84 14.2969 717.703 15.047L719.015 13.537ZM713.431 11.84H706.391V13.84H713.431V11.84ZM705.391 12.84V23.84H707.391V12.84H705.391ZM713.739 39.404C716.118 39.404 718.111 38.8402 719.582 37.5793L718.28 36.0607C717.287 36.9118 715.819 37.404 713.739 37.404V39.404ZM719.573 37.5868C721.091 36.3159 721.823 34.5669 721.823 32.464H719.823C719.823 34.0571 719.294 35.2121 718.289 36.0532L719.573 37.5868ZM721.823 32.464C721.823 30.3447 721.05 28.5838 719.478 27.2916L718.208 28.8364C719.276 29.7148 719.823 30.8873 719.823 32.464H721.823ZM719.497 27.3072C717.977 25.9946 715.976 25.392 713.607 25.392V27.392C715.638 27.392 717.128 27.904 718.189 28.8208L719.497 27.3072ZM713.607 25.392H706.391V27.392H713.607V25.392ZM705.391 26.392V38.404H707.391V26.392H705.391ZM706.391 39.404H713.739V37.404H706.391V39.404Z" fill="white"/>
</g>
<defs>
<filter id="filter0_d_1_2" x="0.923065" y="0.783997" width="726.98" height="48.524" filterUnits="userSpaceOnUse" color-interpolation-filters="sRGB">
<feFlood flood-opacity="0" result="BackgroundImageFix"/>
<feColorMatrix in="SourceAlpha" type="matrix" values="0 0 0 0 0 0 0 0 0 0 0 0 0 0 0 0 0 0 127 0" result="hardAlpha"/>
<feOffset dy="4"/>
<feGaussianBlur stdDeviation="2"/>
<feComposite in2="hardAlpha" operator="out"/>
<feColorMatrix type="matrix" values="0 0 0 0 0 0 0 0 0 0 0 0 0 0 0 0 0 0 0.25 0"/>
<feBlend mode="normal" in2="BackgroundImageFix" result="effect1_dropShadow_1_2"/>
<feBlend mode="normal" in="SourceGraphic" in2="effect1_dropShadow_1_2" result="shape"/>
</filter>
</defs>
</svg>
